# xmcd CD database file generated by OrangeCD 6.4
#
# Track frame offsets:
#	150
#	159095
#	203019
#	217560
#	238587
#	253641
#
# Disc length: 3942 seconds
#
# Revision: 0
# Processed by: cddbd v1.5.2PL0 Copyright (c) Steve Scherf et al.
# Submitted via: OrangeCD 6.4
#
DISCID=3e0f6406
DTITLE=Jimi Hendrix - Studio Sessions Volume. 1
DYEAR=2008
DGENRE=Blues Rock
TTITLE0=Session Thing
TTITLE1=Gloria (Take 8)
TTITLE2=JS31 Jam Messenger (Take 15)
TTITLE3=JS1 Heavy Jam
TTITLE4=JS4 Jam (Last Thursday Morning)
TTITLE5=JS3 Instrumental/Winter Blues
EXTD=
EXTT0=
EXTT1=
EXTT2=
EXTT3=
EXTT4=
EXTT5=
PLAYORDER=
